<svg xmlns="http://www.w3.org/2000/svg" width="67.418" height="92.047" viewBox="0 0 67.418 92.047"><g transform="translate(2.5 2.5)"><path d="M42.159,70.41a4.565,4.565,0,1,1,4.561-4.565,4.565,4.565,0,0,1-4.561,4.565Zm0-8.164a3.6,3.6,0,1,0,3.6,3.6,3.6,3.6,0,0,0-3.6-3.6Z" transform="translate(-22.187 -35.479)" fill="#733fab" stroke="#733fab" stroke-miterlimit="10" stroke-width="3"/><path d="M66.266,68.231a4.561,4.561,0,1,1,4.565-4.561A4.561,4.561,0,0,1,66.266,68.231Zm0-8.164a3.6,3.6,0,1,0,3.6,3.6A3.6,3.6,0,0,0,66.266,60.067Z" transform="translate(-35.72 -34.261)" fill="#733fab" stroke="#733fab" stroke-miterlimit="10" stroke-width="3"/><path d="M93.326,69.6a4.561,4.561,0,1,1,4.512-5.3h0a4.565,4.565,0,0,1-3.766,5.237,4.711,4.711,0,0,1-.746.061Zm0-8.164a3.841,3.841,0,0,0-.588.048,3.595,3.595,0,1,0,.588-.048Z" transform="translate(-50.906 -35.03)" fill="#733fab" stroke="#733fab" stroke-miterlimit="10" stroke-width="3"/><path d="M60.834,102.58l-.913-.29L67.26,79a7.247,7.247,0,0,1-4.679,1.988c-3.318.088-6.027-2.283-6.962-3.213-2.454,2.256-5.017,3.318-7.624,3.169A10.1,10.1,0,0,1,42.2,78.482l5.623,23.843-.935.219L40.41,75.067l1.317,1.62A9.889,9.889,0,0,0,48.061,80c2.449.14,4.885-.948,7.243-3.235l.364-.351.329.377c.031.035,2.994,3.345,6.584,3.248,1.971-.057,3.8-1.141,5.425-3.226l1.633-2.094Z" transform="translate(-23.77 -43.019)" fill="#733fab" stroke="#733fab" stroke-miterlimit="10" stroke-width="3"/><path d="M64.846,153.543H33.874a3.6,3.6,0,0,1,0-7.2H64.846a3.6,3.6,0,0,1,0,7.2Zm-30.972-4.082a.483.483,0,0,0,0,.961H64.846a.483.483,0,0,0,0-.961Z" transform="translate(-18.151 -83.202)" fill="#301b44"/><path d="M65.577,175.419H40.969a3.6,3.6,0,0,1,0-7.2H65.577a3.6,3.6,0,1,1,0,7.2Zm-24.607-4.078a.478.478,0,0,0,0,.957H65.577a.478.478,0,0,0,0-.957Z" transform="translate(-22.064 -95.478)" fill="#301b44"/><path d="M66.57,197.29H48.024a3.6,3.6,0,0,1,0-7.2H66.57a3.6,3.6,0,1,1,0,7.2Zm-18.545-4.082a.483.483,0,0,0,0,.961H66.57a.483.483,0,1,0,0-.961Z" transform="translate(-26.09 -107.745)" fill="#301b44"/><path d="M33.709,64.918A31.209,31.209,0,1,1,64.918,33.709,31.209,31.209,0,0,1,33.709,64.918Zm0-59.3A28.092,28.092,0,1,0,61.8,33.713,28.092,28.092,0,0,0,33.709,5.621Z" transform="translate(-2.5 -2.5)" fill="#301b44" stroke="#301b44" stroke-miterlimit="10" stroke-width="5"/></g></svg>