<svg xmlns="http://www.w3.org/2000/svg" width="88.25" height="96.53" viewBox="0 0 88.25 96.53"><g transform="translate(6.5 6.5)"><g transform="translate(19.653 20.562)"><path d="M48.9,59.357c.64,0,1.31-.05,2-.06s1.46,0,2.19,0,1.5,0,2.22-.025a10.441,10.441,0,0,0,2.045-.215,1.685,1.685,0,0,0,1.13-.665c.12-.185.245-.37.35-.565a16.136,16.136,0,0,0,1.035-2.68c.435-1.33.855-2.665,1.295-4a12.734,12.734,0,0,1,.88-2.1,3.41,3.41,0,0,1,.9-1.15,1.08,1.08,0,0,1,1.425,0,2.95,2.95,0,0,1,.715.82,11.255,11.255,0,0,1,1.1,2.33c.44,1.24.855,2.5,1.28,3.725a23.348,23.348,0,0,0,1.065,2.74,6.939,6.939,0,0,0,.535.885,1.39,1.39,0,0,0,.73.5,5.325,5.325,0,0,0,1.5.245c.895.035,1.785.06,2.68.07s1.715,0,2.57,0a23.5,23.5,0,0,1,2.72.12,5.335,5.335,0,0,1,1.71.445,1.42,1.42,0,0,1,.61.5,1.1,1.1,0,0,1,.065,1.085,3.55,3.55,0,0,1-.695,1A13.391,13.391,0,0,1,78.9,64.162c-1.06.8-2.135,1.575-3.2,2.37a18.326,18.326,0,0,0-1.94,1.58,7.6,7.6,0,0,0-.57.635,1.5,1.5,0,0,0-.325,1.1,7.36,7.36,0,0,0,.355,1.835c.42,1.325.87,2.645,1.295,3.97.285.89.56,1.78.81,2.68a6.27,6.27,0,0,1,.25,1.925,2.3,2.3,0,0,1-.11.615,1.08,1.08,0,0,1-1.175.79,3.63,3.63,0,0,1-1.31-.36,13.23,13.23,0,0,1-2.12-1.245c-1.25-.875-2.5-1.765-3.74-2.64a15.166,15.166,0,0,0-1.93-1.2c-.225-.11-.455-.2-.685-.29a1.8,1.8,0,0,0-1.365.09,9.94,9.94,0,0,0-1.865,1.09c-1.31.935-2.61,1.89-3.92,2.83a15.385,15.385,0,0,1-2.425,1.5,4.03,4.03,0,0,1-1,.335,1.2,1.2,0,0,1-1.5-.965,4.5,4.5,0,0,1,0-1.575,19.435,19.435,0,0,1,.74-2.92c.445-1.445.9-2.885,1.34-4.335a9,9,0,0,0,.39-1.9,1.79,1.79,0,0,0-.5-1.39,10.625,10.625,0,0,0-1.7-1.5c-1-.73-2-1.45-3-2.175a29.339,29.339,0,0,1-2.57-2,4.855,4.855,0,0,1-1.155-1.415,1.15,1.15,0,0,1,.5-1.64,3.79,3.79,0,0,1,1.21-.4C48.078,59.467,48.483,59.417,48.9,59.357Z" transform="translate(-45.806 -47.623)" fill="#733fab"/></g><circle cx="37.625" cy="37.625" r="37.625" fill="none" stroke="#301b44" stroke-miterlimit="10" stroke-width="13"/><path d="M138.309,81.053c-.175-.3-.35-.59-.53-.885h0l-13.16-22.05a2.08,2.08,0,0,0-3.57,0c-3.345,5.62-6.54,11-9.745,16.365l-3.54,5.955h0l-.21.345a1.835,1.835,0,0,0,1.46,2.765l2.95.185.595.04,3.08.19v37.87l7.24-6.745,7.235,6.745V83.913l6.93-.435a1.595,1.595,0,0,0,1.265-2.425Z" transform="translate(-56.9 -31.803)" fill="#733fab"/></g></svg>