<svg xmlns="http://www.w3.org/2000/svg" width="186.752" height="90.048" viewBox="0 0 186.752 90.048"><g transform="translate(0.5 0.5)"><g transform="translate(0 0)"><ellipse cx="3.982" cy="3.982" rx="3.982" ry="3.982" transform="translate(26.637 80.872)" fill="#301b44" stroke="#301b44" stroke-width="1"/><path d="M117.461,80H41.76v23.872" transform="translate(-11.134 -21.328)" fill="none" stroke="#301b44" stroke-miterlimit="10" stroke-width="3"/><ellipse cx="3.982" cy="3.982" rx="3.982" ry="3.982" transform="translate(157.034 80.872)" fill="#301b44" stroke="#301b44" stroke-width="1"/><path d="M116.32,80h75.708v23.872" transform="translate(-31.012 -21.328)" fill="none" stroke="#301b44" stroke-miterlimit="10" stroke-width="3"/><ellipse cx="3.982" cy="3.982" rx="3.982" ry="3.982" transform="translate(26.637 0)" fill="#301b44" stroke="#301b44" stroke-width="1"/><path d="M117.461,32.452H41.76V8.58" transform="translate(-11.134 -2.287)" fill="none" stroke="#301b44" stroke-miterlimit="10" stroke-width="3"/><ellipse cx="3.982" cy="3.982" rx="3.982" ry="3.982" transform="translate(157.034 0)" fill="#301b44" stroke="#301b44" stroke-width="1"/><path d="M116.32,32.452h75.708V8.58" transform="translate(-31.012 -2.287)" fill="none" stroke="#301b44" stroke-miterlimit="10" stroke-width="3"/><ellipse cx="3.982" cy="3.982" rx="3.982" ry="3.982" transform="translate(0 41.224)" fill="#301b44" stroke="#301b44" stroke-width="1"/><ellipse cx="3.982" cy="3.982" rx="3.982" ry="3.982" transform="translate(178.288 41.224)" fill="#301b44"/><line x1="79.954" transform="translate(3.982 45.207)" fill="none" stroke="#301b44" stroke-miterlimit="10" stroke-width="3"/><line x1="79.947" transform="translate(102.323 45.207)" fill="none" stroke="#301b44" stroke-miterlimit="10" stroke-width="3"/><path d="M118.514,45.642a7.664,7.664,0,1,0-7.525,7.532A7.752,7.752,0,0,0,118.514,45.642Zm34.961-7.664h0L142.856,36.1a25.06,25.06,0,0,0-2.824-6.461l6.314-9.138a2.076,2.076,0,0,0-.264-2.692l-7.532-7.525a2.237,2.237,0,0,0-2.824-.271l-9.006,6.322a30.169,30.169,0,0,0-6.454-2.824L118.382,2.885a2.6,2.6,0,0,0-2.288-1.745H105.342a2.31,2.31,0,0,0-2.156,1.745l-2.017,10.891a25.17,25.17,0,0,0-6.182,2.56l-9.006-6.051a1.962,1.962,0,0,0-2.824.264l-7.5,7.532a2.083,2.083,0,0,0-.271,2.692L81.4,29.64A38.673,38.673,0,0,0,78.852,36.1l-10.62,1.877a2.08,2.08,0,0,0-1.753,2.156V51.026A1.9,1.9,0,0,0,68.233,52.9l10.62,2.156a20.1,20.1,0,0,0,2.824,6.183l-6.014,8.874A1.958,1.958,0,0,0,75.9,72.91l7.532,7.664a2.244,2.244,0,0,0,2.816.271l8.742-6.058a23.234,23.234,0,0,0,6.182,2.42l2.017,10.9a2.2,2.2,0,0,0,2.156,1.745h10.752a2.428,2.428,0,0,0,2.288-1.745l1.885-10.627c2.149-.807,4.437-1.467,6.454-2.42l8.874,5.919a2.2,2.2,0,0,0,2.684-.132l7.532-7.664a1.969,1.969,0,0,0,.271-2.824l-6.05-9.145a20.1,20.1,0,0,0,2.824-6.183l10.62-2.156A1.9,1.9,0,0,0,155.228,51V40.135a2.08,2.08,0,0,0-1.753-2.156Z" transform="translate(-17.724 -0.304)" fill="#733fab" fill-rule="evenodd"/></g></g></svg>