<svg xmlns="http://www.w3.org/2000/svg" width="100" height="100" viewBox="0 0 100 100">
  <g id="Building_a_brand_identity-White" data-name="Building a brand identity-White" transform="translate(-590.761 -472.092)">
    <rect id="Bg" width="100" height="100" transform="translate(590.761 472.092)" fill="none"/>
    <g id="Group_598" data-name="Group 598" transform="translate(621.823 490.254)">
      <path id="Path_475" data-name="Path 475" d="M641.807,554.964a20.555,20.555,0,0,1-15.431-6.7,13.4,13.4,0,0,1-3.4-10.739l1.431.2a11.984,11.984,0,0,0,3.06,9.588,19.686,19.686,0,0,0,28.681,0,11.984,11.984,0,0,0,3.06-9.588,24.9,24.9,0,0,0-4.162-10.982A28.5,28.5,0,0,1,650.3,513.4c-.615-5.049-4.108-8.576-8.495-8.576s-7.879,3.527-8.493,8.576l-1.433-.173c.7-5.8,4.785-9.847,9.926-9.847s9.224,4.05,9.928,9.847a27.272,27.272,0,0,0,4.542,12.754,26.411,26.411,0,0,1,4.36,11.536,13.4,13.4,0,0,1-3.4,10.739A20.559,20.559,0,0,1,641.807,554.964Z" transform="translate(-622.852 -491.254)" fill="#fff"/>
      <path id="Path_476" data-name="Path 476" d="M641.652,504.179a14.277,14.277,0,0,0-4.978-5.678l.762-1.227a15.508,15.508,0,0,1,5.54,6.327Z" transform="translate(-623.359 -491.03)" fill="#fff"/>
      <path id="Path_477" data-name="Path 477" d="M645.334,504.772a10.241,10.241,0,0,1-3.069-.436l-.419-.144-.062-.439a11.008,11.008,0,0,1,3.989-9.542c4.635-3.83,11.168-3.416,11.444-3.4l.757.053-.091.753c-.033.275-.861,6.769-5.495,10.6a10.905,10.905,0,0,1-7.054,2.555Zm-2.152-1.681a9.6,9.6,0,0,0,8.287-1.986c3.293-2.721,4.48-7.084,4.842-8.863-1.817.022-6.333.369-9.617,3.083a9.684,9.684,0,0,0-3.512,7.766Z" transform="translate(-623.544 -490.792)" fill="#fff"/>
      <g id="Group_597" data-name="Group 597" transform="translate(1.155 26.708)">
        <g id="Group_594" data-name="Group 594" transform="translate(0 12.728)">
          <path id="Path_478" data-name="Path 478" d="M625.591,531.81a1.189,1.189,0,1,1-1.459.728A1.2,1.2,0,0,1,625.591,531.81Z" transform="translate(-624.051 -531.728)" fill="#fff"/>
        </g>
        <g id="Group_595" data-name="Group 595" transform="translate(3.314 6.467)">
          <path id="Path_479" data-name="Path 479" d="M629.206,525.364a1.193,1.193,0,1,1-1.536.462,1.192,1.192,0,0,1,1.536-.462Z" transform="translate(-627.491 -525.229)" fill="#fff"/>
        </g>
        <g id="Group_596" data-name="Group 596" transform="translate(6.318)">
          <path id="Path_480" data-name="Path 480" d="M632.017,518.548a1.189,1.189,0,0,1-.7,2.27,1.159,1.159,0,0,1-.662-1.441,1.147,1.147,0,0,1,1.362-.829Z" transform="translate(-630.61 -518.516)" fill="#fff"/>
        </g>
      </g>
    </g>
    <g id="Group_610" data-name="Group 610" transform="translate(681.116 487.982)">
      <g id="Group_599" data-name="Group 599">
        <path id="Path_481" data-name="Path 481" d="M685.485,490.635a1.1,1.1,0,1,1,1.084-1.1,1.1,1.1,0,0,1-1.084,1.1Z" transform="translate(-684.401 -488.434)" fill="#fff"/>
      </g>
      <g id="Group_600" data-name="Group 600" transform="translate(0 6.605)">
        <ellipse id="Ellipse_248" data-name="Ellipse 248" cx="1.084" cy="1.101" rx="1.084" ry="1.101" transform="translate(0 0)" fill="#fff"/>
      </g>
      <g id="Group_601" data-name="Group 601" transform="translate(0 13.211)">
        <path id="Path_482" data-name="Path 482" d="M685.485,504.349a1.1,1.1,0,1,1,1.084-1.1,1.1,1.1,0,0,1-1.084,1.1Z" transform="translate(-684.401 -502.147)" fill="#fff"/>
      </g>
      <g id="Group_602" data-name="Group 602" transform="translate(0 19.816)">
        <ellipse id="Ellipse_249" data-name="Ellipse 249" cx="1.084" cy="1.101" rx="1.084" ry="1.101" transform="translate(0 0)" fill="#fff"/>
      </g>
      <g id="Group_603" data-name="Group 603" transform="translate(0 26.421)">
        <ellipse id="Ellipse_250" data-name="Ellipse 250" cx="1.084" cy="1.101" rx="1.084" ry="1.101" transform="translate(0 0)" fill="#fff"/>
      </g>
      <g id="Group_604" data-name="Group 604" transform="translate(0 33.027)">
        <path id="Path_483" data-name="Path 483" d="M685.485,524.919a1.1,1.1,0,1,1,1.084-1.1,1.1,1.1,0,0,1-1.084,1.1Z" transform="translate(-684.401 -522.717)" fill="#fff"/>
      </g>
      <g id="Group_605" data-name="Group 605" transform="translate(0 39.632)">
        <ellipse id="Ellipse_251" data-name="Ellipse 251" cx="1.084" cy="1.101" rx="1.084" ry="1.101" transform="translate(0 0)" fill="#fff"/>
      </g>
      <g id="Group_606" data-name="Group 606" transform="translate(0 46.237)">
        <path id="Path_484" data-name="Path 484" d="M685.485,538.632a1.1,1.1,0,1,1,1.084-1.1,1.1,1.1,0,0,1-1.084,1.1Z" transform="translate(-684.401 -536.43)" fill="#fff"/>
      </g>
      <g id="Group_607" data-name="Group 607" transform="translate(0 52.843)">
        <ellipse id="Ellipse_252" data-name="Ellipse 252" cx="1.084" cy="1.101" rx="1.084" ry="1.101" transform="translate(0 0)" fill="#fff"/>
      </g>
      <g id="Group_608" data-name="Group 608" transform="translate(0 59.449)">
        <path id="Path_485" data-name="Path 485" d="M685.485,552.345a1.1,1.1,0,1,1,1.084-1.1A1.1,1.1,0,0,1,685.485,552.345Z" transform="translate(-684.401 -550.144)" fill="#fff"/>
      </g>
      <g id="Group_609" data-name="Group 609" transform="translate(0 66.054)">
        <ellipse id="Ellipse_253" data-name="Ellipse 253" cx="1.084" cy="1.101" rx="1.084" ry="1.101" transform="translate(0 0)" fill="#fff"/>
      </g>
    </g>
    <g id="Group_622" data-name="Group 622" transform="translate(598.273 487.982)">
      <g id="Group_611" data-name="Group 611" transform="translate(0 66.054)">
        <ellipse id="Ellipse_254" data-name="Ellipse 254" cx="1.084" cy="1.101" rx="1.084" ry="1.101" transform="translate(0 0)" fill="#fff"/>
      </g>
      <g id="Group_612" data-name="Group 612" transform="translate(0 59.449)">
        <path id="Path_486" data-name="Path 486" d="M599.491,550.144a1.1,1.1,0,1,1-1.084,1.1A1.1,1.1,0,0,1,599.491,550.144Z" transform="translate(-598.407 -550.144)" fill="#fff"/>
      </g>
      <g id="Group_613" data-name="Group 613" transform="translate(0 52.843)">
        <ellipse id="Ellipse_255" data-name="Ellipse 255" cx="1.084" cy="1.101" rx="1.084" ry="1.101" transform="translate(0 0)" fill="#fff"/>
      </g>
      <g id="Group_614" data-name="Group 614" transform="translate(0 46.237)">
        <path id="Path_487" data-name="Path 487" d="M599.491,536.43a1.1,1.1,0,1,1-1.084,1.1A1.1,1.1,0,0,1,599.491,536.43Z" transform="translate(-598.407 -536.43)" fill="#fff"/>
      </g>
      <g id="Group_615" data-name="Group 615" transform="translate(0 39.632)">
        <ellipse id="Ellipse_256" data-name="Ellipse 256" cx="1.084" cy="1.101" rx="1.084" ry="1.101" transform="translate(0 0)" fill="#fff"/>
      </g>
      <g id="Group_616" data-name="Group 616" transform="translate(0 33.027)">
        <path id="Path_488" data-name="Path 488" d="M599.491,522.717a1.1,1.1,0,1,1-1.084,1.1A1.1,1.1,0,0,1,599.491,522.717Z" transform="translate(-598.407 -522.717)" fill="#fff"/>
      </g>
      <g id="Group_617" data-name="Group 617" transform="translate(0 26.421)">
        <ellipse id="Ellipse_257" data-name="Ellipse 257" cx="1.084" cy="1.101" rx="1.084" ry="1.101" transform="translate(0 0)" fill="#fff"/>
      </g>
      <g id="Group_618" data-name="Group 618" transform="translate(0 19.816)">
        <ellipse id="Ellipse_258" data-name="Ellipse 258" cx="1.084" cy="1.101" rx="1.084" ry="1.101" transform="translate(0 0)" fill="#fff"/>
      </g>
      <g id="Group_619" data-name="Group 619" transform="translate(0 13.211)">
        <path id="Path_489" data-name="Path 489" d="M599.491,502.147a1.1,1.1,0,1,1-1.084,1.1A1.1,1.1,0,0,1,599.491,502.147Z" transform="translate(-598.407 -502.147)" fill="#fff"/>
      </g>
      <g id="Group_620" data-name="Group 620" transform="translate(0 6.605)">
        <ellipse id="Ellipse_259" data-name="Ellipse 259" cx="1.084" cy="1.101" rx="1.084" ry="1.101" transform="translate(0 0)" fill="#fff"/>
      </g>
      <g id="Group_621" data-name="Group 621">
        <path id="Path_490" data-name="Path 490" d="M599.491,488.434a1.1,1.1,0,1,1-1.084,1.1,1.1,1.1,0,0,1,1.084-1.1Z" transform="translate(-598.407 -488.434)" fill="#fff"/>
      </g>
    </g>
    <g id="Group_634" data-name="Group 634" transform="translate(606.651 479.604)">
      <g id="Group_623" data-name="Group 623">
        <path id="Path_491" data-name="Path 491" d="M609.3,480.822a1.1,1.1,0,1,1-1.1-1.084A1.1,1.1,0,0,1,609.3,480.822Z" transform="translate(-607.103 -479.738)" fill="#fff"/>
      </g>
      <g id="Group_624" data-name="Group 624" transform="translate(6.605)">
        <path id="Path_492" data-name="Path 492" d="M616.161,480.822a1.1,1.1,0,1,1-1.1-1.084,1.1,1.1,0,0,1,1.1,1.084Z" transform="translate(-613.959 -479.738)" fill="#fff"/>
      </g>
      <g id="Group_625" data-name="Group 625" transform="translate(13.21)">
        <path id="Path_493" data-name="Path 493" d="M623.017,480.822a1.1,1.1,0,1,1-1.1-1.084A1.1,1.1,0,0,1,623.017,480.822Z" transform="translate(-620.816 -479.738)" fill="#fff"/>
      </g>
      <g id="Group_626" data-name="Group 626" transform="translate(19.816)">
        <path id="Path_494" data-name="Path 494" d="M629.874,480.822a1.1,1.1,0,1,1-1.1-1.084A1.1,1.1,0,0,1,629.874,480.822Z" transform="translate(-627.673 -479.738)" fill="#fff"/>
      </g>
      <g id="Group_627" data-name="Group 627" transform="translate(26.421)">
        <path id="Path_495" data-name="Path 495" d="M636.731,480.822a1.1,1.1,0,1,1-1.1-1.084A1.1,1.1,0,0,1,636.731,480.822Z" transform="translate(-634.529 -479.738)" fill="#fff"/>
      </g>
      <g id="Group_628" data-name="Group 628" transform="translate(33.027)">
        <path id="Path_496" data-name="Path 496" d="M643.587,480.822a1.1,1.1,0,1,1-1.1-1.084A1.1,1.1,0,0,1,643.587,480.822Z" transform="translate(-641.386 -479.738)" fill="#fff"/>
      </g>
      <g id="Group_629" data-name="Group 629" transform="translate(39.632)">
        <path id="Path_497" data-name="Path 497" d="M650.444,480.822a1.1,1.1,0,1,1-1.1-1.084A1.1,1.1,0,0,1,650.444,480.822Z" transform="translate(-648.243 -479.738)" fill="#fff"/>
      </g>
      <g id="Group_630" data-name="Group 630" transform="translate(46.237)">
        <path id="Path_498" data-name="Path 498" d="M657.3,480.822a1.1,1.1,0,1,1-1.1-1.084A1.1,1.1,0,0,1,657.3,480.822Z" transform="translate(-655.099 -479.738)" fill="#fff"/>
      </g>
      <g id="Group_631" data-name="Group 631" transform="translate(52.843)">
        <path id="Path_499" data-name="Path 499" d="M664.157,480.822a1.1,1.1,0,1,1-1.1-1.084A1.1,1.1,0,0,1,664.157,480.822Z" transform="translate(-661.956 -479.738)" fill="#fff"/>
      </g>
      <g id="Group_632" data-name="Group 632" transform="translate(59.448)">
        <ellipse id="Ellipse_260" data-name="Ellipse 260" cx="1.101" cy="1.084" rx="1.101" ry="1.084" transform="translate(0 0)" fill="#fff"/>
      </g>
      <g id="Group_633" data-name="Group 633" transform="translate(66.053)">
        <path id="Path_500" data-name="Path 500" d="M677.871,480.822a1.1,1.1,0,1,1-1.1-1.084A1.1,1.1,0,0,1,677.871,480.822Z" transform="translate(-675.669 -479.738)" fill="#fff"/>
      </g>
    </g>
    <g id="Group_646" data-name="Group 646" transform="translate(606.651 562.447)">
      <g id="Group_635" data-name="Group 635" transform="translate(66.053)">
        <path id="Path_501" data-name="Path 501" d="M675.669,566.816a1.1,1.1,0,1,1,1.1,1.084A1.1,1.1,0,0,1,675.669,566.816Z" transform="translate(-675.669 -565.732)" fill="#fff"/>
      </g>
      <g id="Group_636" data-name="Group 636" transform="translate(59.448)">
        <ellipse id="Ellipse_261" data-name="Ellipse 261" cx="1.101" cy="1.084" rx="1.101" ry="1.084" transform="translate(0 0)" fill="#fff"/>
      </g>
      <g id="Group_637" data-name="Group 637" transform="translate(52.843)">
        <path id="Path_502" data-name="Path 502" d="M661.956,566.816a1.1,1.1,0,1,1,1.1,1.084A1.1,1.1,0,0,1,661.956,566.816Z" transform="translate(-661.956 -565.732)" fill="#fff"/>
      </g>
      <g id="Group_638" data-name="Group 638" transform="translate(46.237)">
        <path id="Path_503" data-name="Path 503" d="M655.1,566.816a1.1,1.1,0,1,1,1.1,1.084,1.1,1.1,0,0,1-1.1-1.084Z" transform="translate(-655.099 -565.732)" fill="#fff"/>
      </g>
      <g id="Group_639" data-name="Group 639" transform="translate(39.632)">
        <path id="Path_504" data-name="Path 504" d="M648.243,566.816a1.1,1.1,0,1,1,1.1,1.084A1.1,1.1,0,0,1,648.243,566.816Z" transform="translate(-648.243 -565.732)" fill="#fff"/>
      </g>
      <g id="Group_640" data-name="Group 640" transform="translate(33.027)">
        <path id="Path_505" data-name="Path 505" d="M641.386,566.816a1.1,1.1,0,1,1,1.1,1.084A1.1,1.1,0,0,1,641.386,566.816Z" transform="translate(-641.386 -565.732)" fill="#fff"/>
      </g>
      <g id="Group_641" data-name="Group 641" transform="translate(26.421)">
        <path id="Path_506" data-name="Path 506" d="M634.529,566.816a1.1,1.1,0,1,1,1.1,1.084A1.1,1.1,0,0,1,634.529,566.816Z" transform="translate(-634.529 -565.732)" fill="#fff"/>
      </g>
      <g id="Group_642" data-name="Group 642" transform="translate(19.816)">
        <path id="Path_507" data-name="Path 507" d="M627.673,566.816a1.1,1.1,0,1,1,1.1,1.084,1.1,1.1,0,0,1-1.1-1.084Z" transform="translate(-627.673 -565.732)" fill="#fff"/>
      </g>
      <g id="Group_643" data-name="Group 643" transform="translate(13.21)">
        <path id="Path_508" data-name="Path 508" d="M620.816,566.816a1.1,1.1,0,1,1,1.1,1.084A1.1,1.1,0,0,1,620.816,566.816Z" transform="translate(-620.816 -565.732)" fill="#fff"/>
      </g>
      <g id="Group_644" data-name="Group 644" transform="translate(6.605)">
        <path id="Path_509" data-name="Path 509" d="M613.959,566.816a1.1,1.1,0,1,1,1.1,1.084A1.1,1.1,0,0,1,613.959,566.816Z" transform="translate(-613.959 -565.732)" fill="#fff"/>
      </g>
      <g id="Group_645" data-name="Group 645">
        <path id="Path_510" data-name="Path 510" d="M607.1,566.816a1.1,1.1,0,1,1,1.1,1.084,1.1,1.1,0,0,1-1.1-1.084Z" transform="translate(-607.103 -565.732)" fill="#fff"/>
      </g>
    </g>
    <path id="Path_511" data-name="Path 511" d="M603.953,485.284h-9.192v-9.192h9.192Zm-7.747-1.445h6.3v-6.3h-6.3Z" fill="#fff"/>
    <path id="Path_512" data-name="Path 512" d="M689.947,485.284h-9.192v-9.192h9.192Zm-7.747-1.445h6.3v-6.3h-6.3Z" transform="translate(-3.151)" fill="#fff"/>
    <path id="Path_513" data-name="Path 513" d="M689.947,571.278h-9.192v-9.192h9.192Zm-7.747-1.445h6.3v-6.3h-6.3Z" transform="translate(-3.151 -3.151)" fill="#fff"/>
    <path id="Path_514" data-name="Path 514" d="M603.953,571.278h-9.192v-9.192h9.192Zm-7.747-1.445h6.3v-6.3h-6.3Z" transform="translate(0 -3.151)" fill="#fff"/>
  </g>
</svg>
