<svg xmlns="http://www.w3.org/2000/svg" width="100" height="88" viewBox="0 0 100 88">
  <g id="Execution_and_Production-White" data-name="Execution and Production-White" transform="translate(-338.2 -159.762)">
    <rect id="Bg" width="100" height="87" transform="translate(338.2 160.762)" fill="none"/>
    <path id="Path_264" data-name="Path 264" d="M432.694,247.257H345.2v-87.5h87.494Zm-85.994-1.5h84.494v-84.5H346.7Z" fill="#fff"/>
    <g id="Group_292" data-name="Group 292">
      <g id="Group_281" data-name="Group 281">
        <ellipse id="Ellipse_56" data-name="Ellipse 56" cx="1.09" cy="1.125" rx="1.09" ry="1.125" transform="translate(355.144 202.385)" fill="#fff"/>
      </g>
      <g id="Group_282" data-name="Group 282">
        <ellipse id="Ellipse_57" data-name="Ellipse 57" cx="1.09" cy="1.125" rx="1.09" ry="1.125" transform="translate(361.686 202.385)" fill="#fff"/>
      </g>
      <g id="Group_283" data-name="Group 283">
        <ellipse id="Ellipse_58" data-name="Ellipse 58" cx="1.09" cy="1.125" rx="1.09" ry="1.125" transform="translate(368.229 202.385)" fill="#fff"/>
      </g>
      <g id="Group_284" data-name="Group 284">
        <ellipse id="Ellipse_59" data-name="Ellipse 59" cx="1.09" cy="1.125" rx="1.09" ry="1.125" transform="translate(374.772 202.385)" fill="#fff"/>
      </g>
      <g id="Group_285" data-name="Group 285">
        <ellipse id="Ellipse_60" data-name="Ellipse 60" cx="1.09" cy="1.125" rx="1.09" ry="1.125" transform="translate(381.314 202.385)" fill="#fff"/>
      </g>
      <g id="Group_286" data-name="Group 286">
        <ellipse id="Ellipse_61" data-name="Ellipse 61" cx="1.09" cy="1.125" rx="1.09" ry="1.125" transform="translate(387.857 202.385)" fill="#fff"/>
      </g>
      <g id="Group_287" data-name="Group 287">
        <ellipse id="Ellipse_62" data-name="Ellipse 62" cx="1.09" cy="1.125" rx="1.09" ry="1.125" transform="translate(394.4 202.385)" fill="#fff"/>
      </g>
      <g id="Group_288" data-name="Group 288">
        <ellipse id="Ellipse_63" data-name="Ellipse 63" cx="1.09" cy="1.125" rx="1.09" ry="1.125" transform="translate(400.942 202.385)" fill="#fff"/>
      </g>
      <g id="Group_289" data-name="Group 289">
        <ellipse id="Ellipse_64" data-name="Ellipse 64" cx="1.09" cy="1.125" rx="1.09" ry="1.125" transform="translate(407.485 202.385)" fill="#fff"/>
      </g>
      <g id="Group_290" data-name="Group 290">
        <ellipse id="Ellipse_65" data-name="Ellipse 65" cx="1.09" cy="1.125" rx="1.09" ry="1.125" transform="translate(414.028 202.385)" fill="#fff"/>
      </g>
      <g id="Group_291" data-name="Group 291">
        <ellipse id="Ellipse_66" data-name="Ellipse 66" cx="1.09" cy="1.125" rx="1.09" ry="1.125" transform="translate(420.57 202.385)" fill="#fff"/>
      </g>
    </g>
    <g id="Group_303" data-name="Group 303">
      <g id="Group_293" data-name="Group 293">
        <ellipse id="Ellipse_67" data-name="Ellipse 67" cx="1.125" cy="1.09" rx="1.125" ry="1.09" transform="translate(387.823 235.132)" fill="#fff"/>
      </g>
      <g id="Group_294" data-name="Group 294">
        <path id="Path_265" data-name="Path 265" d="M388.947,228.59a1.091,1.091,0,1,1-1.125,1.09A1.107,1.107,0,0,1,388.947,228.59Z" fill="#fff"/>
      </g>
      <g id="Group_295" data-name="Group 295">
        <ellipse id="Ellipse_68" data-name="Ellipse 68" cx="1.125" cy="1.09" rx="1.125" ry="1.09" transform="translate(387.822 222.047)" fill="#fff"/>
      </g>
      <g id="Group_296" data-name="Group 296">
        <path id="Path_266" data-name="Path 266" d="M388.947,215.5a1.091,1.091,0,1,1-1.125,1.091A1.108,1.108,0,0,1,388.947,215.5Z" fill="#fff"/>
      </g>
      <g id="Group_297" data-name="Group 297">
        <path id="Path_267" data-name="Path 267" d="M388.947,208.962a1.091,1.091,0,1,1-1.125,1.09A1.107,1.107,0,0,1,388.947,208.962Z" fill="#fff"/>
      </g>
      <g id="Group_298" data-name="Group 298">
        <path id="Path_268" data-name="Path 268" d="M388.947,195.877a1.091,1.091,0,1,1-1.125,1.09A1.107,1.107,0,0,1,388.947,195.877Z" fill="#fff"/>
      </g>
      <g id="Group_299" data-name="Group 299">
        <ellipse id="Ellipse_69" data-name="Ellipse 69" cx="1.125" cy="1.09" rx="1.125" ry="1.09" transform="translate(387.822 189.334)" fill="#fff"/>
      </g>
      <g id="Group_300" data-name="Group 300">
        <path id="Path_269" data-name="Path 269" d="M388.947,182.791a1.091,1.091,0,1,1-1.125,1.091A1.108,1.108,0,0,1,388.947,182.791Z" fill="#fff"/>
      </g>
      <g id="Group_301" data-name="Group 301">
        <ellipse id="Ellipse_70" data-name="Ellipse 70" cx="1.125" cy="1.09" rx="1.125" ry="1.09" transform="translate(387.822 176.249)" fill="#fff"/>
      </g>
      <g id="Group_302" data-name="Group 302">
        <path id="Path_270" data-name="Path 270" d="M388.947,169.706a1.091,1.091,0,1,1-1.125,1.09A1.107,1.107,0,0,1,388.947,169.706Z" fill="#fff"/>
      </g>
    </g>
    <path id="Path_271" data-name="Path 271" d="M368.482,194.218v-6H355.67V175.8h12.812v-6l12.207,12.207Zm-11.312-7.5h12.812V190.6l8.586-8.586-8.586-8.586V177.3H357.17Z" fill="#fff"/>
    <path id="Path_272" data-name="Path 272" d="M410.446,195.251l-12.207-12.207h6V170.232h12.422v12.812h6Zm-8.586-10.707,8.586,8.586,8.586-8.586h-3.875V171.732h-9.422v12.812Z" fill="#fff"/>
    <path id="Path_273" data-name="Path 273" d="M409.413,237.215,397.2,225.008,409.413,212.8v6h12.813v12.422H409.413Zm-10.087-12.207,8.587,8.586v-3.875h12.813V220.3H407.913v-3.875Z" fill="#fff"/>
    <path id="Path_274" data-name="Path 274" d="M373.66,236.787H361.237V223.975h-5.995l12.207-12.207,12.207,12.207h-6Zm-10.923-1.5h9.423V222.475h3.875l-8.586-8.586-8.586,8.586h3.874Z" fill="#fff"/>
  </g>
</svg>
