<svg xmlns="http://www.w3.org/2000/svg" width="100" height="100" viewBox="0 0 100 100">
  <g id="Product_Design-White" data-name="Product Design-White" transform="translate(-677.026 -153.763)">
    <rect id="Bg" width="100" height="100" transform="translate(677.026 153.763)" fill="none"/>
    <path id="Path_282" data-name="Path 282" d="M749.06,247.257H687.026V185.224H749.06Zm-60.534-1.5H747.56V186.724H688.526Z" fill="#fff"/>
    <rect id="Rectangle_506" data-name="Rectangle 506" width="1.5" height="10.145" transform="translate(739.659 180.62) rotate(-54.02)" fill="#fff"/>
    <rect id="Rectangle_507" data-name="Rectangle 507" width="1.5" height="9.524" transform="translate(712.798 161.119) rotate(-54.021)" fill="#fff"/>
    <g id="Group_312" data-name="Group 312">
      <g id="Group_309" data-name="Group 309">
        <path id="Path_283" data-name="Path 283" d="M726.169,169.9a1.077,1.077,0,1,1-.209-1.542A1.1,1.1,0,0,1,726.169,169.9Z" fill="#fff"/>
      </g>
      <g id="Group_310" data-name="Group 310">
        <path id="Path_284" data-name="Path 284" d="M731.393,173.693a1.077,1.077,0,1,1-.21-1.543A1.1,1.1,0,0,1,731.393,173.693Z" fill="#fff"/>
      </g>
      <g id="Group_311" data-name="Group 311">
        <path id="Path_285" data-name="Path 285" d="M736.617,177.485a1.077,1.077,0,1,1-.21-1.542A1.1,1.1,0,0,1,736.617,177.485Z" fill="#fff"/>
      </g>
    </g>
    <g id="Group_321" data-name="Group 321">
      <g id="Group_313" data-name="Group 313">
        <path id="Path_286" data-name="Path 286" d="M696.867,192.958a1.165,1.165,0,1,1,1.125-1.164A1.145,1.145,0,0,1,696.867,192.958Z" fill="#fff"/>
      </g>
      <g id="Group_314" data-name="Group 314">
        <path id="Path_287" data-name="Path 287" d="M696.867,199.943a1.165,1.165,0,1,1,1.125-1.164A1.145,1.145,0,0,1,696.867,199.943Z" fill="#fff"/>
      </g>
      <g id="Group_315" data-name="Group 315">
        <path id="Path_288" data-name="Path 288" d="M696.867,206.928a1.165,1.165,0,1,1,1.125-1.165A1.146,1.146,0,0,1,696.867,206.928Z" fill="#fff"/>
      </g>
      <g id="Group_316" data-name="Group 316">
        <path id="Path_289" data-name="Path 289" d="M696.867,213.912a1.165,1.165,0,1,1,1.125-1.164A1.145,1.145,0,0,1,696.867,213.912Z" fill="#fff"/>
      </g>
      <g id="Group_317" data-name="Group 317">
        <path id="Path_290" data-name="Path 290" d="M696.867,220.9a1.165,1.165,0,1,1,1.125-1.164A1.145,1.145,0,0,1,696.867,220.9Z" fill="#fff"/>
      </g>
      <g id="Group_318" data-name="Group 318">
        <path id="Path_291" data-name="Path 291" d="M696.867,227.881a1.165,1.165,0,1,1,1.125-1.164A1.145,1.145,0,0,1,696.867,227.881Z" fill="#fff"/>
      </g>
      <g id="Group_319" data-name="Group 319">
        <path id="Path_292" data-name="Path 292" d="M696.867,234.866a1.165,1.165,0,1,1,1.125-1.164A1.145,1.145,0,0,1,696.867,234.866Z" fill="#fff"/>
      </g>
      <g id="Group_320" data-name="Group 320">
        <path id="Path_293" data-name="Path 293" d="M696.867,241.85a1.165,1.165,0,1,1,1.125-1.164A1.145,1.145,0,0,1,696.867,241.85Z" fill="#fff"/>
      </g>
    </g>
    <path id="Path_294" data-name="Path 294" d="M739.747,210.3H705.932V195.5h33.815Zm-32.315-1.5h30.815V197H707.432Z" fill="#fff"/>
    <rect id="Rectangle_508" data-name="Rectangle 508" width="27.185" height="1.5" transform="translate(706.682 217.119)" fill="#fff"/>
    <rect id="Rectangle_509" data-name="Rectangle 509" width="20.314" height="1.5" transform="translate(706.41 224.054)" fill="#fff"/>
    <path id="Path_295" data-name="Path 295" d="M767.616,221.8H748.31v-1.5h17.807V161.262H713.988v24.711h-1.5V159.762h55.128Z" fill="#fff"/>
  </g>
</svg>
