<svg xmlns="http://www.w3.org/2000/svg" width="100" height="100" viewBox="0 0 100 100">
  <g id="Strategy_and_Marketing-White" data-name="Strategy and Marketing-White" transform="translate(-140.138 -153.513)">
    <rect id="Bg" width="100" height="100" transform="translate(140.138 153.513)" fill="none"/>
    <path id="Path_259" data-name="Path 259" d="M232.883,247.257H146.138V160.512h1.5v85.244h85.245Z" fill="#fff"/>
    <rect id="Rectangle_503" data-name="Rectangle 503" width="32.903" height="1.5" transform="translate(204.331 201.999) rotate(-45)" fill="#fff"/>
    <rect id="Rectangle_504" data-name="Rectangle 504" width="1.5" height="13.216" transform="translate(190.41 193.715) rotate(-45)" fill="#fff"/>
    <rect id="Rectangle_505" data-name="Rectangle 505" width="32.903" height="1.5" transform="translate(162.568 215.92) rotate(-45)" fill="#fff"/>
    <g id="Group_280" data-name="Group 280">
      <g id="Group_255" data-name="Group 255">
        <g id="Group_249" data-name="Group 249">
          <ellipse id="Ellipse_26" data-name="Ellipse 26" cx="1.125" cy="1.073" rx="1.125" ry="1.073" transform="translate(159.686 161.93)" fill="#fff"/>
        </g>
        <g id="Group_250" data-name="Group 250">
          <ellipse id="Ellipse_27" data-name="Ellipse 27" cx="1.125" cy="1.073" rx="1.125" ry="1.073" transform="translate(173.607 161.93)" fill="#fff"/>
        </g>
        <g id="Group_251" data-name="Group 251">
          <ellipse id="Ellipse_28" data-name="Ellipse 28" cx="1.125" cy="1.073" rx="1.125" ry="1.073" transform="translate(187.528 161.93)" fill="#fff"/>
        </g>
        <g id="Group_252" data-name="Group 252">
          <ellipse id="Ellipse_29" data-name="Ellipse 29" cx="1.125" cy="1.073" rx="1.125" ry="1.073" transform="translate(201.448 161.93)" fill="#fff"/>
        </g>
        <g id="Group_253" data-name="Group 253">
          <ellipse id="Ellipse_30" data-name="Ellipse 30" cx="1.125" cy="1.073" rx="1.125" ry="1.073" transform="translate(215.369 161.93)" fill="#fff"/>
        </g>
        <g id="Group_254" data-name="Group 254">
          <ellipse id="Ellipse_31" data-name="Ellipse 31" cx="1.125" cy="1.073" rx="1.125" ry="1.073" transform="translate(229.29 161.93)" fill="#fff"/>
        </g>
      </g>
      <g id="Group_256" data-name="Group 256">
        <ellipse id="Ellipse_32" data-name="Ellipse 32" cx="1.073" cy="1.125" rx="1.073" ry="1.125" transform="translate(159.738 175.851)" fill="#fff"/>
      </g>
      <g id="Group_257" data-name="Group 257">
        <ellipse id="Ellipse_33" data-name="Ellipse 33" cx="1.073" cy="1.125" rx="1.073" ry="1.125" transform="translate(159.738 189.772)" fill="#fff"/>
      </g>
      <g id="Group_258" data-name="Group 258">
        <ellipse id="Ellipse_34" data-name="Ellipse 34" cx="1.073" cy="1.125" rx="1.073" ry="1.125" transform="translate(159.738 203.693)" fill="#fff"/>
      </g>
      <g id="Group_259" data-name="Group 259">
        <ellipse id="Ellipse_35" data-name="Ellipse 35" cx="1.073" cy="1.125" rx="1.073" ry="1.125" transform="translate(159.738 231.534)" fill="#fff"/>
      </g>
      <g id="Group_260" data-name="Group 260">
        <ellipse id="Ellipse_36" data-name="Ellipse 36" cx="1.073" cy="1.125" rx="1.073" ry="1.125" transform="translate(173.659 175.851)" fill="#fff"/>
      </g>
      <g id="Group_261" data-name="Group 261">
        <ellipse id="Ellipse_37" data-name="Ellipse 37" cx="1.073" cy="1.125" rx="1.073" ry="1.125" transform="translate(173.659 189.772)" fill="#fff"/>
      </g>
      <g id="Group_262" data-name="Group 262">
        <ellipse id="Ellipse_38" data-name="Ellipse 38" cx="1.073" cy="1.125" rx="1.073" ry="1.125" transform="translate(173.659 217.613)" fill="#fff"/>
      </g>
      <g id="Group_263" data-name="Group 263">
        <ellipse id="Ellipse_39" data-name="Ellipse 39" cx="1.073" cy="1.125" rx="1.073" ry="1.125" transform="translate(173.659 231.534)" fill="#fff"/>
      </g>
      <g id="Group_264" data-name="Group 264">
        <ellipse id="Ellipse_40" data-name="Ellipse 40" cx="1.073" cy="1.125" rx="1.073" ry="1.125" transform="translate(187.579 175.851)" fill="#fff"/>
      </g>
      <g id="Group_265" data-name="Group 265">
        <ellipse id="Ellipse_41" data-name="Ellipse 41" cx="1.073" cy="1.125" rx="1.073" ry="1.125" transform="translate(187.579 203.693)" fill="#fff"/>
      </g>
      <g id="Group_266" data-name="Group 266">
        <ellipse id="Ellipse_42" data-name="Ellipse 42" cx="1.073" cy="1.125" rx="1.073" ry="1.125" transform="translate(187.579 217.613)" fill="#fff"/>
      </g>
      <g id="Group_267" data-name="Group 267">
        <ellipse id="Ellipse_43" data-name="Ellipse 43" cx="1.073" cy="1.125" rx="1.073" ry="1.125" transform="translate(187.579 231.534)" fill="#fff"/>
      </g>
      <g id="Group_268" data-name="Group 268">
        <ellipse id="Ellipse_44" data-name="Ellipse 44" cx="1.073" cy="1.125" rx="1.073" ry="1.125" transform="translate(201.5 175.851)" fill="#fff"/>
      </g>
      <g id="Group_269" data-name="Group 269">
        <ellipse id="Ellipse_45" data-name="Ellipse 45" cx="1.073" cy="1.125" rx="1.073" ry="1.125" transform="translate(201.5 189.772)" fill="#fff"/>
      </g>
      <g id="Group_270" data-name="Group 270">
        <ellipse id="Ellipse_46" data-name="Ellipse 46" cx="1.073" cy="1.125" rx="1.073" ry="1.125" transform="translate(201.5 217.613)" fill="#fff"/>
      </g>
      <g id="Group_271" data-name="Group 271">
        <ellipse id="Ellipse_47" data-name="Ellipse 47" cx="1.073" cy="1.125" rx="1.073" ry="1.125" transform="translate(201.5 231.534)" fill="#fff"/>
      </g>
      <g id="Group_272" data-name="Group 272">
        <ellipse id="Ellipse_48" data-name="Ellipse 48" cx="1.073" cy="1.125" rx="1.073" ry="1.125" transform="translate(215.421 175.851)" fill="#fff"/>
      </g>
      <g id="Group_273" data-name="Group 273">
        <ellipse id="Ellipse_49" data-name="Ellipse 49" cx="1.073" cy="1.125" rx="1.073" ry="1.125" transform="translate(215.421 203.693)" fill="#fff"/>
      </g>
      <g id="Group_274" data-name="Group 274">
        <ellipse id="Ellipse_50" data-name="Ellipse 50" cx="1.073" cy="1.125" rx="1.073" ry="1.125" transform="translate(215.421 217.613)" fill="#fff"/>
      </g>
      <g id="Group_275" data-name="Group 275">
        <ellipse id="Ellipse_51" data-name="Ellipse 51" cx="1.073" cy="1.125" rx="1.073" ry="1.125" transform="translate(215.421 231.534)" fill="#fff"/>
      </g>
      <g id="Group_276" data-name="Group 276">
        <ellipse id="Ellipse_52" data-name="Ellipse 52" cx="1.073" cy="1.125" rx="1.073" ry="1.125" transform="translate(229.342 189.772)" fill="#fff"/>
      </g>
      <g id="Group_277" data-name="Group 277">
        <ellipse id="Ellipse_53" data-name="Ellipse 53" cx="1.073" cy="1.125" rx="1.073" ry="1.125" transform="translate(229.342 203.693)" fill="#fff"/>
      </g>
      <g id="Group_278" data-name="Group 278">
        <ellipse id="Ellipse_54" data-name="Ellipse 54" cx="1.073" cy="1.125" rx="1.073" ry="1.125" transform="translate(229.342 217.613)" fill="#fff"/>
      </g>
      <g id="Group_279" data-name="Group 279">
        <ellipse id="Ellipse_55" data-name="Ellipse 55" cx="1.073" cy="1.125" rx="1.073" ry="1.125" transform="translate(229.342 231.534)" fill="#fff"/>
      </g>
    </g>
    <path id="Path_260" data-name="Path 260" d="M160.811,222.724a3.985,3.985,0,1,1,3.985-3.985A3.985,3.985,0,0,1,160.811,222.724Zm0-6.471a2.485,2.485,0,1,0,2.485,2.486,2.485,2.485,0,0,0-2.485-2.486Z" fill="#fff"/>
    <path id="Path_261" data-name="Path 261" d="M188.652,194.882a3.986,3.986,0,1,1,3.986-3.986,3.986,3.986,0,0,1-3.986,3.986Zm0-6.471a2.486,2.486,0,1,0,2.486,2.486,2.486,2.486,0,0,0-2.486-2.486Z" fill="#fff"/>
    <path id="Path_262" data-name="Path 262" d="M202.573,208.8a3.985,3.985,0,1,1,3.986-3.985,3.985,3.985,0,0,1-3.986,3.985Zm0-6.471a2.485,2.485,0,1,0,2.486,2.486,2.485,2.485,0,0,0-2.486-2.486Z" fill="#fff"/>
    <path id="Path_263" data-name="Path 263" d="M230.415,180.962a3.986,3.986,0,1,1,3.985-3.986A3.986,3.986,0,0,1,230.415,180.962Zm0-6.471a2.486,2.486,0,1,0,2.485,2.485,2.486,2.486,0,0,0-2.485-2.485Z" fill="#fff"/>
  </g>
</svg>
