<svg xmlns="http://www.w3.org/2000/svg" width="107.766" height="93.753" viewBox="0 0 107.766 93.753"><g transform="translate(0 1.206)"><g transform="translate(0 3)"><ellipse cx="10.451" cy="11.671" rx="10.451" ry="11.671" transform="translate(59.211 21.627)" fill="#733fab"/><path d="M33.12,42.266S66.995,35.563,75.7,19.54l10.44,48.936S61.769,57.855,37.56,61.514Z" transform="translate(-14.922 -10.452)" fill="#301b44"/><path d="M19.155,56.88l13.737,57.09-13.737,2.852-6.4-37.666a11.413,11.413,0,0,1-2.137.2C4.758,79.359,0,74.925,0,69.457a9.292,9.292,0,0,1,2.907-6.693,11.989,11.989,0,0,1,5.379-2.83C11.94,58.979,15.55,58.006,19.155,56.88Z" transform="translate(0 -27.275)" fill="#301b44"/><rect width="6.616" height="59.975" rx="1.14" transform="translate(59.046 3.785) rotate(-11.72)" fill="#301b44"/><line y1="14.946" x2="11.429" transform="translate(80.113)" fill="none" stroke="#733fab" stroke-linecap="round" stroke-miterlimit="10" stroke-width="6"/><line x1="14.226" y1="12.319" transform="translate(84.426 48.172)" fill="none" stroke="#733fab" stroke-linecap="round" stroke-miterlimit="10" stroke-width="6"/><line x1="18.352" y2="4.138" transform="translate(85.827 27.534)" fill="none" stroke="#733fab" stroke-linecap="round" stroke-miterlimit="10" stroke-width="6"/></g></g></svg>